<svg width="267" height="228" viewBox="0 0 267 228" fill="none" xmlns="http://www.w3.org/2000/svg">
<ellipse cx="90.18" cy="61.8552" rx="90.025" ry="61.8552" fill="#FF0000"/>
<ellipse cx="176.05" cy="61.8552" rx="90.025" ry="61.8552" fill="#FF0000"/>
<path d="M133.5 228L247.382 99.75H19.6177L133.5 228Z" fill="#FF0000"/>
<path d="M109.4 87.5278H113.135V93.6928H109.4V87.5278ZM92.9298 85.3228H129.65V88.2028H92.9298V85.3228ZM109.445 67.0078H113.135V71.9578H109.445V67.0078ZM109.265 72.3178H112.55V72.9478C112.55 79.3378 104.945 82.7578 95.9448 83.5228L94.8648 80.6428C102.875 80.1478 109.265 77.3128 109.265 72.9478V72.3178ZM110.03 72.3178H113.315V72.9478C113.315 77.3128 119.705 80.1478 127.67 80.6428L126.59 83.5228C117.59 82.7578 110.03 79.3378 110.03 72.9478V72.3178ZM96.6648 70.8328H125.915V73.6678H96.6648V70.8328ZM97.3398 91.8928H124.97V100.848H101.12V105.753H97.4298V98.1928H121.28V94.7278H97.3398V91.8928ZM97.4298 104.673H126.185V107.508H97.4298V104.673ZM155.206 75.7828H164.836V78.8878H155.206V75.7828ZM144.451 69.3478H147.511V73.5778C147.511 81.4078 143.146 87.8428 136.306 90.4528L134.371 87.4828C140.491 85.2328 144.451 79.7878 144.451 73.5778V69.3478ZM145.126 69.3478H148.141V73.7578C148.141 79.3378 152.191 84.5578 158.041 86.6278L156.061 89.5528C149.536 87.0778 145.126 80.9128 145.126 73.7578V69.3478ZM140.626 93.5578H167.761V107.958H164.026V96.5728H140.626V93.5578ZM164.026 67.2778H167.761V91.3078H164.026V67.2778Z" fill="white"/>
</svg>
