<svg width="408" height="231" viewBox="0 0 408 231" fill="none" xmlns="http://www.w3.org/2000/svg">
<ellipse cx="188.5" cy="83.5" rx="94.5" ry="83.5" fill="white"/>
<ellipse cx="188.5" cy="83.5" rx="94.5" ry="83.5" fill="white"/>
<ellipse cx="188.5" cy="83.5" rx="94.5" ry="83.5" fill="white"/>
<ellipse cx="249.5" cy="107.5" rx="94.5" ry="83.5" fill="white"/>
<ellipse cx="249.5" cy="107.5" rx="94.5" ry="83.5" fill="white"/>
<ellipse cx="249.5" cy="107.5" rx="94.5" ry="83.5" fill="white"/>
<ellipse cx="313.5" cy="141.5" rx="94.5" ry="83.5" fill="white"/>
<ellipse cx="313.5" cy="141.5" rx="94.5" ry="83.5" fill="white"/>
<ellipse cx="313.5" cy="141.5" rx="94.5" ry="83.5" fill="white"/>
<ellipse cx="188.5" cy="147.5" rx="94.5" ry="83.5" fill="white"/>
<ellipse cx="188.5" cy="147.5" rx="94.5" ry="83.5" fill="white"/>
<ellipse cx="188.5" cy="147.5" rx="94.5" ry="83.5" fill="white"/>
<ellipse cx="94.5" cy="147.5" rx="94.5" ry="83.5" fill="white"/>
<ellipse cx="94.5" cy="147.5" rx="94.5" ry="83.5" fill="white"/>
<ellipse cx="94.5" cy="147.5" rx="94.5" ry="83.5" fill="white"/>
</svg>
